<svg width="76" height="56" viewBox="0 0 76 56" fill="none" xmlns="http://www.w3.org/2000/svg">
<path d="M54.2667 15.8667V6C54.2667 3.79086 52.4758 2 50.2667 2H6C3.79086 2 2 3.79086 2 6V40.1333C2 42.3425 3.79086 44.1333 6 44.1333H7M54.2667 15.8667H61.9827C63.1758 15.8667 64.3067 16.3993 65.0665 17.3191L73.0838 27.0243C73.676 27.7412 74 28.642 74 29.5718V41.7333C74 43.9425 72.2091 45.7333 70 45.7333H61.2M54.2667 15.8667C54.2667 22.5405 54.2667 31.4765 54.2667 37.5M48 44.1333H20" stroke="#F42C37" stroke-width="3.8"/>
<circle cx="54.7999" cy="45.2019" r="6.93333" stroke="#F42C37" stroke-width="3.8"/>
<circle cx="13.2001" cy="46.2668" r="6.93333" stroke="#F42C37" stroke-width="3.8"/>
</svg>
