<svg width="19" height="22" viewBox="0 0 16 19" fill="none" xmlns="http://www.w3.org/2000/svg">
<path d="M11.7359 3.8V3.9H11.8359H13.7109C14.6857 3.9 15.4859 4.70898 15.4859 5.7V17.1C15.4859 18.091 14.6857 18.9 13.7109 18.9H2.46094C1.48616 18.9 0.685938 18.091 0.685938 17.1V5.7C0.685938 4.70898 1.48616 3.9 2.46094 3.9H4.33594H4.43594V3.8C4.43594 1.75448 6.07054 0.1 8.08594 0.1C10.1013 0.1 11.7359 1.75448 11.7359 3.8ZM9.96094 3.9H10.0609V3.8C10.0609 2.70102 9.17366 1.8 8.08594 1.8C6.99821 1.8 6.11094 2.70102 6.11094 3.8V3.9H6.21094H9.96094ZM4.43594 5.7V5.6H4.33594H3.46094C2.85342 5.6 2.36094 6.09249 2.36094 6.7V16.1C2.36094 16.7075 2.85342 17.2 3.46094 17.2H12.7109C13.3184 17.2 13.8109 16.7075 13.8109 16.1V6.7C13.8109 6.09249 13.3185 5.6 12.7109 5.6H11.8359H11.7359V5.7V7.6C11.7359 8.06852 11.3576 8.45 10.8984 8.45C10.4393 8.45 10.0609 8.06852 10.0609 7.6V5.7V5.6H9.96094H6.21094H6.11094V5.7V7.6C6.11094 8.06852 5.73259 8.45 5.27344 8.45C4.81429 8.45 4.43594 8.06852 4.43594 7.6V5.7Z" fill="#8C8C8C" stroke="white" stroke-width="0.2"/>
</svg>
