<svg width="61" height="61" viewBox="0 0 61 61" fill="none" xmlns="http://www.w3.org/2000/svg">
<path d="M2 48.875V30.125C2 22.6658 4.96316 15.5121 10.2376 10.2376C15.5121 4.96316 22.6658 2 30.125 2C37.5842 2 44.7379 4.96316 50.0124 10.2376C55.2868 15.5121 58.25 22.6658 58.25 30.125V48.875" stroke="#F42C37" stroke-width="3.83607" stroke-linecap="round" stroke-linejoin="round"/>
<path d="M58.25 51.999C58.25 53.6566 57.5915 55.2463 56.4194 56.4184C55.2473 57.5906 53.6576 58.249 52 58.249H48.875C47.2174 58.249 45.6277 57.5906 44.4556 56.4184C43.2835 55.2463 42.625 53.6566 42.625 51.999V42.624C42.625 40.9664 43.2835 39.3767 44.4556 38.2046C45.6277 37.0325 47.2174 36.374 48.875 36.374H58.25V51.999ZM2 51.999C2 53.6566 2.65848 55.2463 3.83058 56.4184C5.00268 57.5906 6.5924 58.249 8.25 58.249H11.375C13.0326 58.249 14.6223 57.5906 15.7944 56.4184C16.9665 55.2463 17.625 53.6566 17.625 51.999V42.624C17.625 40.9664 16.9665 39.3767 15.7944 38.2046C14.6223 37.0325 13.0326 36.374 11.375 36.374H2V51.999Z" stroke="#F42C37" stroke-width="3.83607" stroke-linecap="round" stroke-linejoin="round"/>
</svg>
