<svg width="65" height="65" viewBox="0 0 65 65" fill="none" xmlns="http://www.w3.org/2000/svg">
<path d="M49.3025 1.32375C50.2006 1.0991 51.138 1.08202 52.0436 1.27379C52.9493 1.46556 53.7993 1.86115 54.5292 2.43052C55.2591 2.99988 55.8498 3.72807 56.2562 4.55979C56.6627 5.39151 56.8743 6.3049 56.875 7.23062V12.1869H58.9062C60.5224 12.1869 62.0724 12.8289 63.2152 13.9717C64.358 15.1145 65 16.6645 65 18.2806V54.8431C65 56.4593 64.358 58.0093 63.2152 59.1521C62.0724 60.2949 60.5224 60.9369 58.9062 60.9369H6.09375C4.47759 60.9369 2.92762 60.2949 1.78482 59.1521C0.642019 58.0093 3.98497e-07 56.4593 3.98497e-07 54.8431V18.2806C-0.000566559 16.7119 0.60386 15.2034 1.68747 14.0691C2.77108 12.9348 4.2504 12.262 5.8175 12.1909L49.3025 1.32375ZM22.5956 12.1869H52.8125V7.23062C52.8118 6.92242 52.741 6.61842 52.6054 6.34165C52.4698 6.06488 52.273 5.82258 52.0299 5.63312C51.7868 5.44366 51.5038 5.312 51.2023 5.24812C50.9008 5.18423 50.5887 5.18979 50.2897 5.26437L22.5956 12.1869ZM6.09375 16.2494C5.55503 16.2494 5.03837 16.4634 4.65744 16.8443C4.27651 17.2252 4.0625 17.7419 4.0625 18.2806V54.8431C4.0625 55.3818 4.27651 55.8985 4.65744 56.2794C5.03837 56.6604 5.55503 56.8744 6.09375 56.8744H58.9062C59.445 56.8744 59.9616 56.6604 60.3426 56.2794C60.7235 55.8985 60.9375 55.3818 60.9375 54.8431V18.2806C60.9375 17.7419 60.7235 17.2252 60.3426 16.8443C59.9616 16.4634 59.445 16.2494 58.9062 16.2494H6.09375Z" fill="#F42C37"/>
</svg>
