<svg width="479" height="94" viewBox="0 0 479 94" fill="none" xmlns="http://www.w3.org/2000/svg">
<path d="M455.655 37.2964L439.117 52.4849L455.655 67.6734V76.449H455.149L430.51 54.0037V75.2676H423.422V10.8008H430.51V51.1348L455.149 28.8583H455.824V37.2964H455.655ZM133.153 75.2676H169.605V68.0109H140.578V12.9947H133.153V75.2676ZM194.919 28.8583C183.781 28.8583 173.487 37.9714 173.487 52.6536C173.487 66.8296 182.768 76.2802 196.269 76.2802C202.176 76.2802 207.745 74.7613 212.808 71.2174V63.4543C207.576 67.8421 201.838 69.6985 196.607 69.6985C188.506 69.6985 181.418 64.6357 180.743 55.3538H214.833C214.833 54.51 215.171 52.4849 215.171 51.6411C215.002 36.6213 205.889 28.8583 194.919 28.8583ZM194.919 35.2712C201.163 35.2712 207.745 39.3215 207.914 49.1096H180.574C181.081 41.5154 186.819 35.2712 194.919 35.2712ZM314.908 28.8583C308.833 28.8583 304.445 32.0648 301.914 36.7901C299.72 31.7272 295.67 28.8583 289.257 28.8583C283.688 28.8583 279.469 32.0648 277.106 36.4525H276.768L275.925 29.7021H270.355V75.2676H277.612V46.5782C277.612 41.0091 280.987 35.7775 287.4 35.7775C293.476 35.7775 296.176 39.3215 296.176 45.9032V75.2676H303.433V46.0719C303.433 40.8403 306.977 35.7775 313.052 35.7775C319.296 35.7775 321.996 39.3215 321.996 45.9032V75.2676H329.253V44.8906C329.422 35.44 324.865 28.8583 314.908 28.8583ZM358.618 28.8583C347.817 28.8583 337.691 37.9714 337.691 52.6536C337.691 66.9983 347.817 76.2802 358.618 76.2802C365.368 76.2802 371.781 73.0737 375.325 66.8296H375.494L376.338 75.2676H382.244V29.7021H376.338L375.494 38.1402H375.325C371.95 32.0648 365.537 28.8583 358.618 28.8583ZM359.968 35.6087C368.574 35.6087 374.987 42.528 374.987 52.4849C374.987 62.4418 368.574 69.361 359.968 69.361C351.53 69.361 344.948 62.6105 344.948 52.4849C344.948 42.3592 351.53 35.6087 359.968 35.6087ZM413.127 29.1958C409.246 29.1958 403.171 31.0522 400.133 36.9588L399.458 29.7021H393.72V75.2676H400.977V49.1096C400.977 38.6464 409.415 35.2712 416.503 36.7901V29.5333C415.153 29.3646 414.309 29.1958 413.127 29.1958ZM261.074 28.6895H260.567L241.497 47.5908L222.596 28.6895H222.09V37.8026L236.772 52.4849L222.09 66.9983V76.2802H222.596L241.329 57.3789L260.399 76.449H261.074V67.1671L246.391 52.4849L261.074 37.6339V28.6895ZM459.199 11.3071V10.2946H466.794V11.3071H463.587V18.9014H462.406V11.3071H459.199ZM470.506 10.2946L473.713 17.5513L476.919 10.2946H478.438V18.9014H477.594V11.6446L474.388 18.7326H473.375L470.169 11.6446V18.7326H469.156V10.2946H470.506Z" fill="#32323C"/>
<path d="M94.0001 75.605V0H75.6051L47.0845 28.5206L94.0001 75.605Z" fill="#008A44"/>
<path d="M0 18.3948V93.9998H18.395L46.9156 65.3104L0 18.3948Z" fill="#3AF23A"/>
<path d="M18.3949 94H93.9999V75.6051L65.4793 46.9156L18.3949 94Z" fill="#006446"/>
<path d="M75.605 0H0V18.395L28.5206 46.9156L75.605 0Z" fill="#00C425"/>
</svg>
