<svg width="387" height="64" viewBox="0 0 387 64" fill="none" xmlns="http://www.w3.org/2000/svg">
<path d="M38.2937 32.8615C41.3719 33.1077 43.9577 34.3385 46.174 36.6769C48.3904 39.0154 49.4986 42.2154 49.4986 46.2769C49.4986 51.2 47.8979 55.2615 44.5733 58.2154C41.2488 61.1692 36.5698 62.6462 30.2902 62.6462H0V4.30769H30.167C35.4617 4.30769 39.7712 5.78462 42.9726 8.61539C46.174 11.5692 47.7747 15.3846 47.7747 20.1846C47.7747 23.8769 46.7897 26.7077 44.6965 28.9231C42.6032 31.1385 40.51 32.2462 38.1705 32.4923L38.2937 32.8615ZM14.4063 28.4308H26.9656C29.0589 28.4308 30.7827 27.8154 32.1371 26.5846C33.3684 25.3538 34.1072 23.8769 34.1072 21.7846C34.1072 19.9385 33.4916 18.5846 32.2603 17.4769C31.029 16.3692 29.4283 15.8769 27.5813 15.8769H14.4063V28.4308ZM27.7044 51.0769C29.9208 51.0769 31.7677 50.4615 32.999 49.3539C34.2304 48.2462 34.846 46.6462 34.846 44.5538C34.846 42.5846 34.2304 41.1077 32.8759 40C31.6446 38.8923 29.9208 38.2769 27.9507 38.2769H14.4063V51.0769H27.7044ZM99.3665 62.6462H85.4528V58.4615C82.0051 62.1538 77.4493 64 72.0315 64C66.86 64 62.7967 62.2769 59.7184 58.9538C56.6402 55.6308 55.0395 51.2 55.0395 45.7846V18.9538H68.8301V42.8308C68.8301 45.4154 69.5689 47.5077 70.9233 49.1077C72.2778 50.7077 74.1247 51.4462 76.3411 51.4462C79.1731 51.4462 81.3894 50.4615 82.9901 48.4923C84.5908 46.5231 85.3296 43.4462 85.3296 39.2615V18.9538H99.2434L99.3665 62.6462ZM142.339 62.6462H105.4V60.0615L122.761 30.0308H105.892V18.9538H142.093V21.5385L124.731 51.5692H142.216V62.6462H142.339ZM185.189 62.6462H148.373V60.0615L165.611 30.0308H148.742V18.9538H184.942V21.5385L167.581 51.5692H185.066L185.189 62.6462ZM205.875 29.2923H231.116V41.8462H205.875V62.7692H191.468V4.30769H233.333V16.8615H205.875V29.2923ZM333.192 44.4308H301.178C302.04 49.8462 306.103 52.9231 312.137 52.9231C316.939 52.9231 321.741 51.0769 325.311 48.2462L330.606 57.4769C325.681 61.6615 319.401 64 312.137 64C297.484 64 287.51 55.1385 287.51 40.8615C287.51 34.0923 289.727 28.5538 294.159 24.2462C298.592 19.9385 304.133 17.7231 310.659 17.7231C316.939 17.7231 322.233 19.8154 326.543 24.1231C330.852 28.4308 333.069 33.9692 333.192 40.9846V44.4308ZM304.995 30.7692C303.271 32 302.04 33.7231 301.424 35.8154H319.401C318.786 33.6 317.677 31.8769 316.077 30.6462C314.476 29.5385 312.629 28.9231 310.659 28.9231C308.566 28.9231 306.719 29.5385 304.995 30.7692ZM282.216 44.4308H250.202C251.064 49.8462 255.127 52.9231 261.16 52.9231C265.962 52.9231 270.765 51.0769 274.335 48.2462L279.63 57.4769C274.705 61.6615 268.425 64 261.16 64C246.508 64 236.534 55.1385 236.534 40.8615C236.534 34.0923 238.751 28.5538 243.183 24.2462C247.616 19.9385 253.157 17.7231 259.683 17.7231C265.962 17.7231 271.257 19.8154 275.567 24.1231C279.876 28.4308 282.093 33.9692 282.216 40.9846V44.4308ZM254.019 30.7692C252.295 32 251.064 33.7231 250.448 35.8154H268.425C267.809 33.6 266.701 31.8769 265.101 30.6462C263.5 29.5385 261.653 28.9231 259.683 28.9231C257.59 28.9231 255.743 29.5385 254.019 30.7692ZM387 62.6462H373.086V59.2C369.515 62.4 365.083 64 359.542 64C353.632 64 348.583 61.7846 344.397 57.4769C340.21 53.1692 338.117 47.6308 338.117 40.8615C338.117 34.0923 340.21 28.5538 344.397 24.2462C348.583 19.9385 353.632 17.7231 359.542 17.7231C365.083 17.7231 369.639 19.3231 373.086 22.5231V0H387V62.6462ZM370.008 48.9846C372.101 46.8923 373.209 44.1846 373.209 40.8615C373.209 37.6615 372.101 34.9538 370.008 32.7385C367.915 30.6462 365.329 29.5385 362.497 29.5385C359.419 29.5385 356.956 30.6462 354.986 32.7385C353.016 34.8308 352.031 37.5385 352.031 40.8615C352.031 44.1846 353.016 47.0154 354.986 49.1077C356.956 51.2 359.419 52.1846 362.497 52.1846C365.329 52.1846 367.792 51.0769 370.008 48.9846Z" fill="#EE3322"/>
</svg>
