<svg width="402" height="98" viewBox="0 0 402 98" fill="none" xmlns="http://www.w3.org/2000/svg">
<path d="M0 20.4104C0 20.4104 10.0022 61.473 11.5985 68.1381C13.4617 75.9175 16.8188 78.7807 26.498 76.8497L32.7437 51.3912C34.3266 45.0674 35.3884 40.5591 36.4059 34.1262H36.5849C37.2999 40.6223 38.3179 45.0863 39.6206 51.4133C39.6206 51.4133 42.163 62.9708 43.465 69.0412C44.7704 75.1095 48.4033 78.9341 57.8841 76.8519L72.7658 20.4147H60.7506L55.6701 44.8152C54.3041 51.9178 53.0646 57.4675 52.109 63.9652H51.9394C51.0709 57.5323 49.9663 52.2024 48.5775 45.2824L43.2874 20.4147H30.7687L25.1101 44.6559C23.507 52.022 22.0076 57.9704 21.0541 64.2476H20.8815C19.905 58.336 18.6045 50.8602 17.1961 43.7296C17.1961 43.7296 13.8343 26.3912 12.6547 20.4147L0.00116988 20.4164L0 20.4104ZM114.54 20.4104V76.8476H125.98V64.8634V20.4077H114.54V20.4104ZM275.655 20.4104V62.045C275.655 67.7854 276.733 71.8072 279.04 74.2642C281.055 76.4131 284.375 77.8045 288.353 77.8045C291.735 77.8045 295.063 77.1619 296.631 76.5766L296.484 67.6203C295.317 67.9081 293.974 68.1383 292.138 68.1383C288.242 68.1383 286.935 65.6379 286.935 60.4837V44.5545H296.897V33.7564H286.935V20.4106H275.654L275.655 20.4104ZM88.9755 33.4937C81.8662 33.4937 76.2227 35.4936 73.1465 37.2746L75.3978 44.9978C78.2131 43.2196 82.6958 41.7475 86.9402 41.7475C93.9676 41.7294 95.1164 45.7285 95.1164 48.2933V48.8998C79.804 48.8768 70.1317 54.1853 70.1317 65.0062C70.1317 71.6129 75.0554 77.8043 83.6171 77.8043C88.8875 77.8043 93.2953 75.6985 95.937 72.3243H96.196C96.196 72.3243 97.9453 79.6521 107.583 76.8499C107.076 73.8001 106.912 70.5483 106.912 66.6319V51.555C106.912 41.9457 102.817 33.4939 88.9756 33.4939L88.9755 33.4937ZM157.405 33.4937C150.247 33.4937 147.03 37.1282 145.08 40.2118H144.91V34.4508H133.993V76.8503H145.493V51.9848C145.493 50.8191 145.626 49.5864 146.032 48.5141C146.985 46.0105 149.31 43.0821 153.022 43.0821C157.662 43.0821 159.834 47.0125 159.834 52.6849V76.8498H171.322V51.6835C171.322 50.5707 171.474 49.2304 171.801 48.2465C172.745 45.3988 175.252 43.0816 178.702 43.0816C183.406 43.0816 185.664 46.9437 185.664 53.6183V76.85H197.16V51.878C197.16 38.7083 190.486 33.494 182.951 33.494C179.614 33.494 176.98 34.3322 174.599 35.7969C172.597 37.0274 170.806 38.7757 169.239 41.0778H169.07C167.248 36.5084 162.972 33.494 157.403 33.494L157.405 33.4937ZM220.557 33.4937C213.45 33.4937 207.807 35.4936 204.728 37.2746L206.983 44.9978C209.795 43.2196 214.281 41.7475 218.523 41.7475C225.545 41.7294 226.697 45.7285 226.697 48.2933V48.8998C211.387 48.8768 201.713 54.1853 201.713 65.0062C201.713 71.6129 206.64 77.8043 215.206 77.8043C220.472 77.8043 224.881 75.6985 227.518 72.3243H227.778C227.778 72.3243 229.527 79.6521 239.166 76.8499C238.659 73.8001 238.496 70.5483 238.496 66.6319V51.555C238.496 41.9457 234.4 33.4939 220.557 33.4939L220.557 33.4937ZM268.315 33.4937C263.911 33.4937 258.901 36.3417 256.798 42.4468H256.477V34.4503H246.124V76.8497H257.926V55.1385C257.926 53.9673 257.997 52.9461 258.182 52.0096C259.055 47.4617 262.527 44.5543 267.51 44.5543C268.878 44.5543 269.857 44.7028 270.917 44.856V33.756C270.028 33.5762 269.421 33.4933 268.316 33.4933L268.315 33.4937ZM95.4858 56.4132V61.7026C95.4858 62.485 95.4179 63.2923 95.2015 63.9981C94.3162 66.9358 91.2786 69.4182 87.4814 69.4182C84.3156 69.4182 81.8008 67.6182 81.8008 63.8102C81.8008 57.9855 88.2006 56.3754 95.4862 56.4132H95.4858ZM227.068 56.4132V61.7026C227.068 62.485 226.998 63.2923 226.783 63.9981C225.898 66.9358 222.861 69.4182 219.064 69.4182C215.898 69.4182 213.383 67.6182 213.383 63.8102C213.383 57.9855 219.782 56.3754 227.068 56.4132H227.068Z" fill="#007DC6"/>
<path d="M358.749 0C355.056 0 352.121 2.06622 352.121 4.5816L354.364 30.0255C354.611 31.5585 356.486 32.7409 358.751 32.7409C361.022 32.738 362.889 31.5565 363.142 30.0255L365.396 4.5816C365.396 2.06643 362.452 0.000216052 358.754 0.000216052L358.749 0ZM322.199 20.4099C320.282 20.4555 318.104 21.9098 316.719 24.3164C314.866 27.5209 315.194 31.102 317.362 32.3584L340.475 43.1421C341.919 43.6801 343.88 42.6528 345.015 40.6914C345.015 40.6912 345.015 40.6906 345.015 40.6904C346.156 38.7193 346.068 36.5031 344.867 35.5201L323.992 20.8512C323.45 20.5366 322.84 20.395 322.201 20.4102L322.199 20.4099ZM395.299 20.4099C394.66 20.3947 394.051 20.5363 393.51 20.8509L372.633 35.5197C371.439 36.5027 371.35 38.719 372.485 40.69L372.486 40.6911C373.626 42.6525 375.581 43.6798 377.025 43.1417L400.148 32.3586C402.325 31.1022 402.637 27.5213 400.796 24.3166C399.405 21.91 397.223 20.4557 395.306 20.4101L395.299 20.4099ZM341.338 53.9796C341.039 53.9755 340.749 54.0218 340.478 54.1241L317.365 64.8948C315.197 66.1567 314.869 69.7392 316.722 72.9471C318.569 76.1453 321.825 77.6658 323.993 76.4116L344.87 61.754C346.071 60.759 346.16 58.5434 345.018 56.5743L345.028 56.5786C344.105 54.9747 342.634 53.9969 341.338 53.9792L341.338 53.9796ZM376.171 53.9796C374.876 53.9972 373.408 54.975 372.483 56.5789L372.491 56.5746C371.356 58.5437 371.444 60.7593 372.638 61.7544L393.515 76.4119C395.68 77.6661 398.939 76.1457 400.795 72.9474C402.635 69.7394 402.323 66.1569 400.146 64.8952L377.03 54.1244C376.759 54.0221 376.469 53.9758 376.171 53.9799L376.171 53.9796ZM358.746 64.5245C356.484 64.5272 354.614 65.7047 354.367 67.2336L352.124 92.6765C352.124 95.1961 355.059 97.2581 358.752 97.2581C362.452 97.2581 365.393 95.196 365.393 92.6765L363.145 67.2336C362.892 65.7047 361.025 64.5275 358.754 64.5245H358.746H358.746Z" fill="#FFC220"/>
</svg>
