<svg width="332" height="75" viewBox="0 0 332 75" fill="none" xmlns="http://www.w3.org/2000/svg">
<path fill-rule="evenodd" clip-rule="evenodd" d="M121.016 52.9869C121.016 41.7764 115.458 35.6441 95.3367 32.386L95.3367 40.3391C109.23 42.7346 112.775 46.3755 112.68 53.2744C112.584 59.8858 107.793 66.5928 92.5579 66.5928C79.7184 66.5928 72.3405 59.7899 70.8075 50.3039H61.5131C62.6629 61.9938 72.4362 74.7375 92.2705 74.7375C112.488 74.7375 121.016 63.4311 121.016 52.9869ZM63.7168 20.3133C63.7168 34.59 76.6521 38.8059 87.3837 39.7641L87.3836 31.7154C78.5685 30.5656 72.0528 27.4038 72.0528 20.4089C72.0528 13.5099 78.8558 8.14433 90.0664 8.14433C100.127 8.14433 106.835 13.1269 108.463 20.888H118.045C117.183 12.5522 109.134 0 90.0666 0C75.694 0 63.7168 7.85681 63.7168 20.3133ZM0 1.43751V9.77339H52.508V1.43751H0ZM52.508 33.2488H0V41.4891H52.508V33.2488ZM52.508 64.9642H0V73.3005H52.508V64.9642ZM139.508 1.43751V73.3004H131.172V1.43751H139.508ZM147.461 9.77339V1.43751H161.546C175.056 1.43751 183.679 9.86934 183.679 21.4633C183.679 33.0573 174.577 41.4891 161.546 41.4891H147.461V33.1528H161.546C170.457 33.1528 175.343 28.3622 175.343 21.4632C175.343 14.5643 170.457 9.77331 161.546 9.77331L147.461 9.77339ZM202.075 1.43751H193.739V73.3004H202.075V1.43751ZM248.355 21.4633C248.355 9.86934 239.732 1.43751 226.221 1.43751H210.028V9.77331H225.934C234.845 9.77331 239.54 15.0434 239.54 21.4632C239.54 27.9787 234.845 33.1528 225.934 33.1528H210.028V41.4891H226.221C239.252 41.4891 248.355 33.0573 248.355 21.4633ZM223.73 48.6752L240.019 73.3004H250.463L233.695 48.6752H223.73ZM260.331 1.43751H268.667V73.3004H260.331V1.43751ZM277.576 1.43751V9.77339H332V1.43751H277.576ZM309.004 73.3004V17.5346H300.668V73.3004H309.004Z" fill="#191B1C"/>
</svg>
