<svg width="333" height="72" viewBox="0 0 333 72" fill="none" xmlns="http://www.w3.org/2000/svg">
<path d="M66.4768 48.0933V63.6155C60.8733 68.5775 47.4834 71.5293 37.5145 71.5293C27.5583 71.5293 0 65.3204 0 36.1463C0 6.97226 26.2308 0.687047 36.8124 0.687047C47.4069 0.687047 58.6906 2.62096 65.2259 6.97226V20.6241C65.2259 22.329 62.89 22.1764 62.89 20.6241C62.7369 18.2958 56.5079 4.33858 40.9353 4.64393C24.1247 4.98745 12.7644 18.1559 12.7644 35.5229C12.7644 52.8899 23.8055 67.8014 40.4758 67.3306C45.8879 67.1779 51.5298 65.4731 54.2613 63.2083L54.3251 48.0933C54.3251 43.7547 51.6829 42.2025 49.0407 42.2025C47.3175 42.2025 47.3175 39.7215 49.0407 39.7215H71.7613C73.4717 39.7215 73.4717 42.3552 71.7613 42.2025C69.1318 42.2025 66.4768 43.7547 66.4768 48.0933ZM219.662 20.6369C219.662 22.3418 217.952 22.1891 217.952 20.6369C217.786 18.3085 211.569 3.88054 195.997 4.19862C179.186 4.52942 167.813 18.1686 167.813 35.5356C167.813 52.9026 178.714 68.2721 195.371 67.8141C212.029 67.3433 219.968 50.9051 220.594 48.7295C221.219 46.5538 222.304 46.8719 222.304 48.5768V61.2999C215.463 66.2619 202.532 71.542 192.576 71.542C182.62 71.542 155.062 65.3331 155.062 36.159C155.062 6.97226 181.216 0 191.797 0C202.392 0 213.127 2.63368 219.675 6.97226V20.6369H219.662ZM331.133 1.70489C333.622 1.70489 333.622 4.03322 331.133 4.03322C328.478 4.03322 325.836 5.58544 325.836 9.92402V61.5925C325.836 65.9311 328.478 67.4833 331.133 67.4833C333.622 67.4833 333.622 70.5877 331.133 70.5877H308.247C305.758 70.5877 305.758 67.4833 308.247 67.4833C310.902 67.4833 313.544 65.9311 313.544 61.5925V9.92402C313.544 5.57272 310.902 4.03322 308.247 4.03322C305.758 4.03322 305.758 1.70489 308.247 1.70489H331.133ZM149.139 1.70489C151.628 1.70489 151.628 4.03322 149.139 4.03322C146.497 4.03322 143.854 5.58544 143.854 9.92402L143.548 43.8311C143.548 60.0657 130.337 72 114.037 72C97.7368 72 85.0107 60.0657 85.0107 43.8311V9.92402C85.0107 5.57272 82.3557 4.03322 79.7135 4.03322C77.2244 4.03322 77.2244 1.70489 79.7135 1.70489H102.753C105.242 1.70489 105.242 4.03322 102.753 4.03322C100.098 4.03322 97.4559 5.58544 97.4559 9.92402L97.4304 47.7879C97.4304 59.2387 106.825 68.5266 118.313 68.5266C129.801 68.5266 139.119 56.9104 139.119 45.4723L138.557 9.92402C138.557 5.57272 135.915 4.03322 133.26 4.03322C130.784 4.03322 130.784 1.70489 133.26 1.70489H149.139ZM295.789 20.6369C295.789 22.3418 294.078 22.1891 294.078 20.6369C293.925 18.3085 287.696 3.88054 272.124 4.19862C255.313 4.52942 243.94 18.1686 243.94 35.5356C243.94 52.9026 254.841 68.2721 271.498 67.8141C288.156 67.3561 296.095 50.9051 296.72 48.7295C297.346 46.5538 298.444 46.8719 298.444 48.5768V61.2999C291.589 66.2619 278.672 71.542 268.703 71.542C258.746 71.542 231.188 65.3331 231.188 36.159C231.188 6.97226 257.342 0 267.937 0C278.518 0 289.266 2.63368 295.801 6.97226V20.6369H295.789Z" fill="black"/>
</svg>
