<svg width="421" height="83" viewBox="0 0 421 83" fill="none" xmlns="http://www.w3.org/2000/svg">
<path fill-rule="evenodd" clip-rule="evenodd" d="M64.4757 19.5287C64.4757 30.3152 55.726 39.0597 44.9323 39.0597C34.1382 39.0597 25.3885 30.3152 25.3885 19.5287C25.3885 8.74445 34.1382 0 44.9323 0C55.726 0 64.4757 8.74445 64.4757 19.5287ZM19.5439 43.9425C8.75016 43.9425 0 52.6844 0 63.4708C0 74.2564 8.75016 83 19.5439 83C30.338 83 39.0886 74.2564 39.0886 63.4708C39.0886 52.6844 30.338 43.9425 19.5439 43.9425ZM70.3203 43.9408C59.5266 43.9408 50.7765 52.6844 50.7765 63.4708C50.7765 74.2564 59.5266 83 70.3203 83C81.114 83 89.8642 74.2564 89.8642 63.4708C89.8642 52.6844 81.114 43.9408 70.3203 43.9408Z" fill="url(#paint0_radial_450_2)"/>
<path fill-rule="evenodd" clip-rule="evenodd" d="M158.633 63.239C158.888 66.1362 161.207 69.8239 165.225 69.8239H167.576C168.487 69.8239 169.234 69.0775 169.234 68.1661V16.5034H169.224C169.176 15.6331 168.457 14.936 167.576 14.936H160.292C159.411 14.936 158.691 15.6331 158.642 16.5034H158.633V20.7013C154.17 15.2041 147.134 12.9224 140.077 12.9224C124.038 12.9224 111.036 25.9248 111.036 41.9651C111.036 58.0062 124.038 71.0091 140.077 71.0091V71.0104C147.134 71.0104 154.824 68.2728 158.633 63.2323L158.633 63.239ZM140.106 60.8444C129.905 60.8444 121.635 52.3926 121.635 41.9651C121.635 31.5393 129.905 23.0871 140.106 23.0871C150.306 23.0871 158.575 31.5393 158.575 41.9651C158.575 52.3926 150.306 60.8444 140.106 60.8444Z" fill="#273347"/>
<path fill-rule="evenodd" clip-rule="evenodd" d="M277.313 63.2392C277.568 66.1364 279.887 69.8242 283.905 69.8242H286.255C287.167 69.8242 287.913 69.0777 287.913 68.1664V16.5037H287.903C287.856 15.6333 287.135 14.9362 286.255 14.9362H278.971C278.09 14.9362 277.371 15.6333 277.321 16.5037H277.313V20.7016C272.849 15.2043 265.813 12.9226 258.756 12.9226C242.717 12.9226 229.716 25.925 229.716 41.9653C229.716 58.0065 242.717 71.0094 258.756 71.0094V71.0107C265.813 71.0107 273.503 68.2731 277.312 63.2326L277.313 63.2392ZM258.785 60.8446C248.585 60.8446 240.315 52.3928 240.315 41.9653C240.315 31.5396 248.585 23.0873 258.785 23.0873C268.986 23.0873 277.254 31.5396 277.254 41.9653C277.254 52.3928 268.986 60.8446 258.785 60.8446Z" fill="#273347"/>
<path fill-rule="evenodd" clip-rule="evenodd" d="M409.983 63.2392C410.238 66.1364 412.557 69.8242 416.575 69.8242H418.926C419.837 69.8242 420.585 69.0777 420.585 68.1664V16.5037H420.574C420.526 15.6333 419.807 14.9362 418.926 14.9362H411.642C410.761 14.9362 410.041 15.6333 409.993 16.5037H409.983V20.7016C405.521 15.2043 398.484 12.9226 391.428 12.9226C375.388 12.9226 362.386 25.925 362.386 41.9653C362.386 58.0065 375.388 71.0094 391.428 71.0094V71.0107C398.484 71.0107 406.174 68.2731 409.983 63.2326L409.983 63.2392ZM391.456 60.8446C381.255 60.8446 372.985 52.3928 372.985 41.9653C372.985 31.5396 381.255 23.0873 391.456 23.0873C401.656 23.0873 409.926 31.5396 409.926 41.9653C409.926 52.3928 401.656 60.8446 391.456 60.8446Z" fill="#273347"/>
<path fill-rule="evenodd" clip-rule="evenodd" d="M353.177 65.0157L353.173 38.2825H353.174C353.174 23.213 343.667 13.047 328.508 13.047C321.271 13.047 315.339 17.2317 313.244 20.8264C312.791 18.0156 311.299 15.0611 306.671 15.0611H304.313C303.4 15.0611 302.655 15.808 302.655 16.7193V63.3685V63.3755V68.3864H302.664C302.712 69.2555 303.433 69.9534 304.313 69.9534H311.598C311.709 69.9534 311.819 69.9402 311.924 69.9195C311.973 69.9102 312.017 69.8913 312.064 69.878C312.118 69.8613 312.175 69.8485 312.226 69.8273C312.291 69.8004 312.35 69.7643 312.41 69.7308C312.44 69.7127 312.471 69.6999 312.499 69.681C312.572 69.6342 312.639 69.5778 312.703 69.52C312.714 69.5094 312.726 69.5024 312.737 69.4927C312.809 69.4226 312.875 69.3454 312.934 69.2652L312.935 69.2639C313.117 69.0134 313.228 68.7118 313.246 68.3864H313.255V37.868C313.255 29.7747 319.817 23.213 327.911 23.213C336.004 23.213 342.566 29.7747 342.566 37.868L342.572 63.3773L342.574 63.3685C342.574 63.3909 342.578 63.4143 342.578 63.4386V68.3864H342.587C342.635 69.2555 343.355 69.9534 344.236 69.9534H351.521C351.633 69.9534 351.741 69.9402 351.847 69.9195C351.89 69.9115 351.93 69.8944 351.972 69.8824C352.032 69.8653 352.093 69.8503 352.15 69.8273C352.21 69.8026 352.264 69.7682 352.32 69.7365C352.355 69.7171 352.391 69.703 352.424 69.681C352.491 69.6369 352.553 69.5835 352.613 69.5306C352.629 69.5165 352.646 69.5059 352.66 69.4914C352.729 69.4248 352.791 69.3529 352.847 69.2775C352.851 69.2718 352.856 69.2674 352.86 69.2616C353.039 69.0134 353.149 68.714 353.168 68.3909C353.168 68.3886 353.169 68.3864 353.169 68.3864H353.179V65.0166L353.177 65.0157Z" fill="#273347"/>
<path fill-rule="evenodd" clip-rule="evenodd" d="M186.637 55.8401C191.5 59.2091 196.808 60.8453 201.909 60.8453C206.768 60.8453 211.792 58.326 211.792 53.9411C211.792 48.0867 200.845 47.1758 193.967 44.8381C187.088 42.5004 181.163 37.668 181.163 29.8423C181.163 17.8677 191.832 12.922 201.791 12.922C208.1 12.922 214.61 15.0026 218.831 17.9832C220.285 19.0846 219.399 20.3491 219.399 20.3491L215.37 26.1034C214.918 26.7516 214.126 27.3115 212.989 26.61C211.853 25.909 207.866 23.0872 201.791 23.0872C195.715 23.0872 192.055 25.8931 192.055 29.371C192.055 33.5416 196.812 34.8533 202.383 36.2748C212.092 38.892 222.684 42.0379 222.684 53.9411C222.684 64.4917 212.816 71.0118 201.909 71.0118C193.644 71.0118 186.607 68.6556 180.705 64.3246C179.475 63.094 180.334 61.9516 180.334 61.9516L184.343 56.2264C185.159 55.1558 186.187 55.5293 186.637 55.8401Z" fill="#273347"/>
<defs>
<radialGradient id="paint0_radial_450_2" cx="0" cy="0" r="1" gradientUnits="userSpaceOnUse" gradientTransform="translate(45.2128 49.6204) rotate(37.3039) scale(55.5187 53.9261)">
<stop stop-color="#FFB900"/>
<stop offset="0.74709" stop-color="#FA5C86"/>
<stop offset="1" stop-color="#F95353"/>
</radialGradient>
</defs>
</svg>
